<svg xmlns="http://www.w3.org/2000/svg" xmlns:svg="http://www.w3.org/2000/svg" id="Capa_1" width="95" height="95" version="1.1" viewBox="0 0 95 95" xml:space="preserve"><metadata id="metadata39"/><path id="path2" d="m 46.934528,1.4544729 c -25.403,0.34 -45.719001,21.2109991 -45.3810009,46.6149991 0.34,25.393 21.2090009,45.715 46.6110009,45.377 25.398,-0.342 45.718,-21.213 45.38,-46.615 -0.34,-25.395 -21.21,-45.7159991 -46.61,-45.3769991 z m -0.136,73.9959991 -0.254,-0.004 c -3.912,-0.116 -6.67,-2.998 -6.559,-6.852 0.109,-3.788 2.934,-6.538 6.717,-6.538 l 0.227,0.004 c 4.021,0.119 6.748,2.972 6.635,6.937 -0.112,3.799 -2.893,6.453 -6.766,6.453 z m 16.455,-32.659 c -0.92,1.307 -2.943,2.93 -5.492,4.916 l -2.807,1.938 c -1.541,1.198 -2.471,2.325 -2.82,3.434 -0.275,0.873 -0.41,1.104 -0.434,2.88 l -0.004,0.451 h -10.718 l 0.031,-0.907 c 0.131,-3.728 0.223,-5.921 1.768,-7.733 2.424,-2.846 7.771,-6.289 7.998,-6.435 0.766,-0.577 1.412,-1.234 1.893,-1.936 1.125,-1.551 1.623,-2.772 1.623,-3.972 0,-1.665 -0.494,-3.205 -1.471,-4.576 -0.939,-1.323 -2.723,-1.993 -5.303,-1.993 -2.559,0 -4.311,0.812 -5.359,2.478 -1.078,1.713 -1.623,3.512 -1.623,5.35 v 0.457 h -11.051 l 0.02,-0.477 c 0.285,-6.769 2.701,-11.643 7.178,-14.487 2.813,-1.811 6.313,-2.729 10.397,-2.729 5.346,0 9.859,1.299 13.412,3.861 3.6,2.596 5.426,6.484 5.426,11.556 0,2.837 -0.896,5.502 -2.664,7.924 z" style="fill:#fff;fill-opacity:1;stroke:none;stroke-opacity:1"/></svg>