<svg xmlns="http://www.w3.org/2000/svg" xmlns:d="https://loading.io/stock/" xmlns:svg="http://www.w3.org/2000/svg" id="svg14" width="37" height="37" version="1.1" viewBox="0 0 78.723 78.723"><metadata id="metadata20"/><g id="g12" class="ldl-scale" transform="translate(0,-21.276598)"><path style="fill:#0071bc;fill-opacity:1" id="path2" d="m 48.310779,80.593219 c 0,4.399 -3.206,8.063 -7.404,8.778 v 9.722 h 27.328 c 5.333,0 9.672,-4.339 9.672,-9.672 v -27.328 h -12.596 v -1.5 c 0,-3.256 -2.648,-5.905 -5.904,-5.905 -3.256,0 -5.904,2.649 -5.904,5.905 v 1.5 h -12.596 v 9.722 c 4.198,0.715 7.404,4.379 7.404,8.778 z"/><path style="fill:#6d9435;fill-opacity:1" id="path4" d="m 59.406779,51.688219 c 4.398,0 8.063,3.206 8.778,7.405 h 9.722 v -27.328 c 0,-5.332999 -4.339,-9.671999 -9.672,-9.671999 h -27.328 v 12.594999 h -1.5 c -3.256,0 -5.904,2.649 -5.904,5.905 0,3.256 2.648,5.905 5.904,5.905 h 1.5 v 12.595 h 9.722 c 0.716,-4.199 4.38,-7.405 8.778,-7.405 z"/><path style="fill:#29abe2;fill-opacity:1" id="path6" d="m 30.502779,40.593219 c 0,-4.399 3.206,-8.063 7.404,-8.778 V 22.09322 h -27.328 c -5.3329993,0 -9.6719993,4.339 -9.6719993,9.671999 v 27.328 H 13.502779 v 1.5 c 0,3.256 2.648,5.905 5.904,5.905 3.256,0 5.904,-2.649 5.904,-5.905 v -1.5 h 12.596 v -9.722 c -4.198,-0.715 -7.404,-4.379 -7.404,-8.778 z"/><path style="fill:#c1272d;fill-opacity:1" id="path8" d="m 19.406779,69.498219 c -4.398,0 -8.063,-3.206 -8.778,-7.405 H 0.9067797 v 27.328 c 0,5.333 4.339,9.672 9.6719993,9.672 h 27.328 v -12.595 h 1.5 c 3.256,0 5.904,-2.649 5.904,-5.905 0,-3.256 -2.648,-5.905 -5.904,-5.905 h -1.5 v -12.595 h -9.722 c -0.716,4.199 -4.38,7.405 -8.778,7.405 z"/><metadata id="metadata10"><d:name style="animation-play-state:paused">puzzle</d:name><d:tags style="animation-play-state:paused">puzzle,maze,merge,combine,solve,step,flow,infographics</d:tags><d:license style="animation-play-state:paused">by</d:license><d:slug style="animation-play-state:paused">acogix</d:slug></metadata></g></svg>