<svg xmlns="http://www.w3.org/2000/svg" xmlns:svg="http://www.w3.org/2000/svg" id="svg10" width="780" height="780" x="0" y="0" enable-background="new 0 0 1000 1000" version="1.1" viewBox="0 0 780 780" xml:space="preserve"><metadata id="metadata2">Svg Vector Icons : http://www.onlinewebfonts.com/icon</metadata><g id="g8" transform="translate(0,-220)"><path id="path6" d="m 767.70189,574.87556 c 2.3,-16.2 3.4,-30.7 3.4,-44.5 0,-158.5 -119.5,-287.5 -266.3,-287.5 h -230 c -146.8,0 -266.2999976,129 -266.2999976,287.5 0,142.3 93.9999976,259.7 220.0999976,283.2 v 121.2 c 0,15.9 9.7,30.2 24.5,36.2 4.7,1.9 9.6,2.8 14.5,2.8 10.5,0 20.7,-4.2 28.2,-12 l 137.7,-143.9 h 71.4 c 132,0 242.5,-102.2 262.8,-243 z m -566.9,-133.4 h 374.3 c 10.5,0 19,9 19,20.1 0,11.1 -8.5,20.1 -19,20.1 h -374.3 c -10.5,0 -19,-9 -19,-20.1 0,-11.1 8.5,-20.1 19,-20.1 z m 224.7,186.3 h -224.7 c -10.5,0 -19,-9 -19,-20 0,-11.1 8.5,-20.1 19,-20.1 h 224.7 c 10.5,0 19,9 19,20.1 0,11 -8.5,20 -19,20 z" style="fill:#29abe2;fill-opacity:1"/></g></svg>