<svg xmlns="http://www.w3.org/2000/svg" xmlns:svg="http://www.w3.org/2000/svg" id="svg2" width="21" height="21" version="1.1" viewBox="0 0 21 21" xml:space="preserve"><metadata id="metadata8"/><defs id="defs6"><clipPath id="clipPath18" clipPathUnits="userSpaceOnUse"><path id="path16" d="M 0,21 H 21 V 0 H 0 Z"/></clipPath><clipPath id="clipPath30" clipPathUnits="userSpaceOnUse"><path id="path28" d="M 0,21 H 21 V 0 H 0 Z"/></clipPath></defs><g id="g10" transform="matrix(1.3333333,0,0,-1.3333333,0,21)"><g id="g24"><g id="g26" clip-path="url(#clipPath30)" transform="matrix(-1,0,0,1,20.911017,0.08898305)"><g id="g32" transform="matrix(1.0803199,0,0,0.83505276,5.5593223,12.087755)" style="fill:#c8c8c8;fill-opacity:1"><path style="fill:#c8c8c8;fill-opacity:1;fill-rule:nonzero;stroke:none;stroke-width:1.03660333" id="path34" d="M 3.6083366e-8,0 V -3 C 3.6083366e-8,-3.551 0.48354592,-4 1.0745464,-4 H 12.894557 c 0.591,0 1.074546,0.449 1.074546,1 v 3 z"/></g><g id="g36" transform="matrix(0.93649747,0,0,0.83505276,17.775457,4.7686592)" style="fill:#fff;fill-opacity:1"><path style="fill:#fff;fill-opacity:1;fill-rule:nonzero;stroke:none;stroke-width:1.11335969" id="path38" d="m 3.0699153,8.7648307 v 3.0000003 c 0,0.549 -0.5578064,1 -1.2395697,1 H -11.804922 c -0.681764,0 -1.23957,-0.451 -1.23957,-1 V 8.7648307 Z"/></g><path style="fill:none;stroke:#fff;stroke-width:1.72500002;stroke-linecap:round;stroke-linejoin:miter;stroke-miterlimit:4;stroke-dasharray:none;stroke-opacity:1" id="path883" d="M 19.79873,1.0233041 C 15.927969,8.0084744 11.745762,-1.1122889 6.2733044,5.338983"/></g></g></g></svg>