<svg xmlns="http://www.w3.org/2000/svg" xmlns:svg="http://www.w3.org/2000/svg" id="svg62" x="0" y="0" enable-background="new 0 0 1000 1000" version="1.1" viewBox="0 0 1000 1000" xml:space="preserve"><metadata id="metadata2">Svg Vector Icons : http://www.onlinewebfonts.com/icon</metadata><g id="g60" style="fill:#a5a5a5;fill-opacity:1"><g id="g28" style="fill:#fff;fill-opacity:1"><g id="g26" style="fill:#fff;fill-opacity:1"><g id="g24" transform="translate(-0.3177966,-0.317796)" style="fill:#fff;fill-opacity:1"><g id="g22" style="fill:#fff;fill-opacity:1"><path id="path4" d="M 192.98729,10 H 70.995763 C 37.360956,10 10,37.360956 10,70.995763 V 192.98729 c 0,33.6348 27.360956,60.99576 60.995763,60.99576 H 192.98729 c 33.6348,0 60.99576,-27.36096 60.99576,-60.99576 V 70.995763 C 253.98305,37.360956 226.62209,10 192.98729,10 Z" style="fill:#fff;fill-opacity:1;stroke-width:.87136805"/></g></g><path id="path4-3" d="M 564.17373,9.6822038 H 442.1822 c -33.63481,0 -60.99576,27.3609502 -60.99576,60.9957602 V 192.66949 c 0,33.6348 27.36095,60.99576 60.99576,60.99576 h 121.99153 c 33.6348,0 60.99576,-27.36096 60.99576,-60.99576 V 70.677964 c 0,-33.63481 -27.36096,-60.9957602 -60.99576,-60.9957602 z" style="fill:#fff;fill-opacity:1;stroke-width:.87136805"/><path id="path4-3-6" d="M 564.17373,372.71187 H 442.1822 c -33.63481,0 -60.99576,27.36095 -60.99576,60.99576 v 121.99153 c 0,33.6348 27.36095,60.99576 60.99576,60.99576 h 121.99153 c 33.6348,0 60.99576,-27.36096 60.99576,-60.99576 V 433.70762 c 0,-33.63481 -27.36096,-60.99576 -60.99576,-60.99575 z" style="fill:#fff;fill-opacity:1;stroke-width:.87136805"/><path id="path4-3-7" d="M 564.17373,747.71186 H 442.1822 c -33.63481,0 -60.99576,27.36095 -60.99576,60.99576 v 121.99153 c 0,33.6348 27.36095,60.99576 60.99576,60.99576 h 121.99153 c 33.6348,0 60.99576,-27.36096 60.99576,-60.99576 V 808.70761 c 0,-33.63481 -27.36096,-60.99576 -60.99576,-60.99575 z" style="fill:#fff;fill-opacity:1;stroke-width:.87136805"/><path id="path4-3-5" d="M 928.58052,9.682203 H 806.58899 c -33.63481,0 -60.99576,27.36095 -60.99576,60.99576 V 192.6695 c 0,33.6348 27.36095,60.99576 60.99576,60.99576 h 121.99153 c 33.63484,0 60.99574,-27.36096 60.99574,-60.99576 V 70.677963 c 0,-33.63481 -27.3609,-60.99576 -60.99574,-60.99576 z" style="fill:#fff;fill-opacity:1;stroke-width:.87136805"/><path id="path4-3-3" d="M 928.58051,372.71186 H 806.58898 c -33.63481,0 -60.99576,27.36095 -60.99576,60.99576 v 121.99154 c 0,33.6348 27.36095,60.99576 60.99576,60.99576 h 121.99153 c 33.6348,0 60.99576,-27.36096 60.99576,-60.99576 V 433.70762 c 0,-33.63481 -27.36096,-60.99576 -60.99576,-60.99576 z" style="fill:#fff;fill-opacity:1;stroke-width:.87136805"/><path id="path4-3-56" d="M 928.58051,747.71186 H 806.58898 c -33.63481,0 -60.99576,27.36095 -60.99576,60.99576 v 121.99153 c 0,33.6348 27.36095,60.99575 60.99576,60.99575 h 121.99153 c 33.6348,0 60.99576,-27.36095 60.99576,-60.99575 V 808.70762 c 0,-33.63481 -27.36096,-60.99576 -60.99576,-60.99576 z" style="fill:#fff;fill-opacity:1;stroke-width:.87136805"/><path id="path4-3-2" d="M 192.66949,747.71186 H 70.677966 c -33.634814,0 -60.9957642,27.36095 -60.9957642,60.99576 v 121.99153 c 0,33.6348 27.3609502,60.99576 60.9957642,60.99576 H 192.66949 c 33.6348,0 60.99576,-27.36096 60.99576,-60.99576 V 808.70762 c 0,-33.63481 -27.36096,-60.99576 -60.99576,-60.99576 z" style="fill:#fff;fill-opacity:1;stroke-width:.87136805"/><path id="path4-3-9" d="M 192.66949,372.71186 H 70.677962 c -33.634805,0 -60.9957549,27.36095 -60.9957549,60.99576 v 121.99154 c 0,33.6348 27.3609499,60.99576 60.9957549,60.99576 H 192.66949 c 33.6348,0 60.99576,-27.36096 60.99576,-60.99576 V 433.70762 c 0,-33.63481 -27.36096,-60.99576 -60.99576,-60.99576 z" style="fill:#fff;fill-opacity:1;stroke-width:.87136805"/></g></g></g></svg>