<svg xmlns="http://www.w3.org/2000/svg" xmlns:svg="http://www.w3.org/2000/svg" id="svg2" width="28" height="28" version="1.1" viewBox="0 0 28 28" xml:space="preserve"><metadata id="metadata8"/><defs id="defs6"><clipPath id="clipPath18" clipPathUnits="userSpaceOnUse"><path id="path16" d="M 0,21 H 21 V 0 H 0 Z"/></clipPath><clipPath id="clipPath30" clipPathUnits="userSpaceOnUse"><path id="path28" d="M 0,21 H 21 V 0 H 0 Z"/></clipPath></defs><g id="g10" transform="matrix(1.3333333,0,0,-1.3333333,0,28)"><g id="g12"><g id="g14" clip-path="url(#clipPath18)"><g id="g20" transform="translate(21,0.5)"><path style="fill:#333;fill-opacity:1;fill-rule:nonzero;stroke:none" id="path22" d="m 0,0 c 0,-0.275 -0.225,-0.5 -0.5,-0.5 h -20 c -0.275,0 -0.5,0.225 -0.5,0.5 v 20 c 0,0.275 0.225,0.5 0.5,0.5 h 20 C -0.225,20.5 0,20.275 0,20 Z"/></g></g></g><g id="g24"><g id="g26" clip-path="url(#clipPath30)"><g id="g32" transform="translate(2,6)"><path style="fill:#0071bc;fill-opacity:1;fill-rule:nonzero;stroke:none" id="path34" d="m 0,0 v -3 c 0,-0.551 0.45,-1 1,-1 h 11 c 0.55,0 1,0.449 1,1 v 3 z"/></g><g id="g36" transform="translate(15,6)"><path style="fill:#29abe2;fill-opacity:1;fill-rule:nonzero;stroke:none" id="path38" d="m 0,0 v 3 c 0,0.549 -0.45,1 -1,1 h -11 c -0.55,0 -1,-0.451 -1,-1 V 0 Z"/></g><g id="g40" transform="translate(6,15)"><path style="fill:#0071bc;fill-opacity:1;fill-rule:nonzero;stroke:none" id="path42" d="m 0,0 v -3 c 0,-0.55 0.45,-1 1,-1 h 7 c 0.55,0 1,0.45 1,1 v 3 z"/></g><g id="g44" transform="translate(15,15)"><path style="fill:#29abe2;fill-opacity:1;fill-rule:nonzero;stroke:none" id="path46" d="M 0,0 V 3 C 0,3.55 -0.45,4 -1,4 H -8 C -8.55,4 -9,3.55 -9,3 V 0 Z"/></g><g id="g48" transform="translate(19,2.5)"><path style="fill:#999;fill-opacity:1;fill-rule:nonzero;stroke:none" id="path50" d="m 0,0 c 0,-0.275 -0.225,-0.5 -0.5,-0.5 h -1 C -1.775,-0.5 -2,-0.275 -2,0 v 16 c 0,0.275 0.225,0.5 0.5,0.5 h 1 C -0.225,16.5 0,16.275 0,16 Z"/></g><g id="g52" transform="translate(17,10.5)"><path style="fill:#ccc;fill-opacity:1;fill-rule:nonzero;stroke:none" id="path54" d="m 0,0 v 8 c 0,0.275 0.225,0.5 0.5,0.5 h 1 C 1.775,8.5 2,8.275 2,8 V 0 Z"/></g></g></g></g></svg>