<svg xmlns="http://www.w3.org/2000/svg" xmlns:svg="http://www.w3.org/2000/svg" id="svg2" width="28" height="28" version="1.1" viewBox="0 0 28 28" xml:space="preserve"><metadata id="metadata8"/><defs id="defs6"><clipPath id="clipPath18" clipPathUnits="userSpaceOnUse"><path id="path16" d="M 0,21 H 21 V 0 H 0 Z"/></clipPath><clipPath id="clipPath30" clipPathUnits="userSpaceOnUse"><path id="path28" d="M 0,21 H 21 V 0 H 0 Z"/></clipPath></defs><g id="g10" transform="matrix(1.3333333,0,0,-1.3333333,0,28)"><g id="g12"><g id="g14" clip-path="url(#clipPath18)"><g id="g20" transform="translate(21,0.5)"><path style="fill:#333;fill-opacity:1;fill-rule:nonzero;stroke:none" id="path22" d="m 0,0 c 0,-0.275 -0.225,-0.5 -0.5,-0.5 h -20 c -0.275,0 -0.5,0.225 -0.5,0.5 v 20 c 0,0.275 0.225,0.5 0.5,0.5 h 20 C -0.225,20.5 0,20.275 0,20 Z"/></g></g></g><g id="g24"><g id="g26" clip-path="url(#clipPath30)"><g id="g32" transform="translate(18.1104,3)"><path style="fill:#29abe2;fill-opacity:1;fill-rule:nonzero;stroke:none" id="path34" d="M 0,0 H -1.034 C -2.48,0 -4.372,3.208 -4.918,4.191 -5.054,4.438 -5.395,5.038 -5.842,4.988 -6.232,4.968 -6.89,4.466 -7.46,3.12 -8.187,1.405 -9.284,0.416 -10.553,0.336 c -0.662,-0.045 -1.944,0.157 -3.001,1.969 l -2.435,4.174 c -0.247,0.424 -0.105,0.969 0.321,1.217 0.426,0.247 0.968,0.104 1.217,-0.32 l 2.434,-4.175 c 0.421,-0.72 0.902,-1.134 1.351,-1.089 0.536,0.034 1.136,0.686 1.566,1.702 0.767,1.811 1.92,2.887 3.163,2.953 0.585,0.04 1.709,-0.149 2.577,-1.712 1.061,-1.916 2.086,-3.047 2.444,-3.275 L 0,1.78 C 0.492,1.78 0.89,1.382 0.89,0.89 0.89,0.398 0.492,0 0,0"/></g><g id="g36" transform="translate(15.3281,17.5542)"><path style="fill:#f20;fill-opacity:1;fill-rule:nonzero;stroke:none" id="path38" d="m 0,0 c 0,0 -0.708,0.846 -1.441,0.207 l 0.712,-0.842 0.713,-0.843 C 0.716,-0.838 0,0 0,0"/></g><g id="g40" transform="translate(7.564,10.7603)"><path style="fill:#f20;fill-opacity:1;fill-rule:nonzero;stroke:none" id="path42" d="m 0,0 c -0.035,-0.031 -0.078,-0.048 -0.122,-0.048 -0.048,0 -0.097,0.021 -0.132,0.061 -0.068,0.074 -0.062,0.19 0.011,0.258 L 5.886,5.943 C 5.959,6.011 6.074,6.005 6.141,5.931 6.208,5.856 6.203,5.74 6.129,5.672 Z M 6.008,6.722 -0.58,0.572 -1.563,-1.92 0.861,-1.075 7.45,5.076 Z"/></g></g></g></g></svg>