<svg xmlns="http://www.w3.org/2000/svg" xmlns:svg="http://www.w3.org/2000/svg" id="svg2" width="28" height="28" version="1.1" viewBox="0 0 28 28" xml:space="preserve"><metadata id="metadata8"/><defs id="defs6"><clipPath id="clipPath18" clipPathUnits="userSpaceOnUse"><path id="path16" d="M 0,21 H 21 V 0 H 0 Z"/></clipPath><clipPath id="clipPath30" clipPathUnits="userSpaceOnUse"><path id="path28" d="M 0,21 H 21 V 0 H 0 Z"/></clipPath></defs><g id="g10" transform="matrix(1.3333333,0,0,-1.3333333,0,28)"><g id="g12"><g id="g14" clip-path="url(#clipPath18)"><g id="g20" transform="translate(21,0.5)"><path style="fill:#333;fill-opacity:1;fill-rule:nonzero;stroke:none" id="path22" d="m 0,0 c 0,-0.275 -0.225,-0.5 -0.5,-0.5 h -20 c -0.275,0 -0.5,0.225 -0.5,0.5 v 20 c 0,0.275 0.225,0.5 0.5,0.5 h 20 C -0.225,20.5 0,20.275 0,20 Z"/></g></g></g><g id="g24"><g id="g26" clip-path="url(#clipPath30)"><g id="g32" transform="translate(3.5952,9.4912)"><path style="fill:#29abe2;fill-opacity:1;fill-rule:nonzero;stroke:none" id="path34" d="M 0,0 1.302,2.769 C 1.657,3.522 2.5,4.092 3.265,4.092 h 7.939 v 0.053 c 0,0.564 -0.414,1.028 -0.922,1.028 H 9.304 C 8.797,5.173 8.141,5.548 7.848,6.01 L 7.427,6.671 C 7.133,7.132 6.479,7.509 5.971,7.509 h -6.644 c -0.507,0 -0.922,-0.463 -0.922,-1.028 v -9.876 z"/></g><g id="g36" transform="translate(15.8232,4.9092)"><path style="fill:#0071bc;fill-opacity:1;fill-rule:nonzero;stroke:none" id="path38" d="m 0,0 c -0.235,-0.499 -0.843,-0.909 -1.351,-0.909 h -10.961 c -0.507,0 -0.73,0.41 -0.495,0.909 l 1.781,3.789 1.302,2.769 c 0.235,0.501 0.843,0.91 1.35,0.91 H 2.588 c 0.507,0 0.73,-0.409 0.495,-0.91 z"/></g><g id="g40" transform="translate(18.4111,12.377)"><path style="fill:#29abe2;fill-opacity:1;fill-rule:nonzero;stroke:none" id="path42" d="m 0,0 h -10.962 c -0.507,0 -1.115,-0.409 -1.35,-0.91 l -1.302,-2.769 H -0.808 L 0.495,-0.91 C 0.73,-0.409 0.507,0 0,0"/></g></g></g></g></svg>