<svg xmlns="http://www.w3.org/2000/svg" xmlns:svg="http://www.w3.org/2000/svg" id="svg2" width="28" height="28" version="1.1" viewBox="0 0 28 28" xml:space="preserve"><metadata id="metadata8"/><defs id="defs6"><clipPath id="clipPath18" clipPathUnits="userSpaceOnUse"><path id="path16" d="M 0,21 H 21 V 0 H 0 Z"/></clipPath><clipPath id="clipPath30" clipPathUnits="userSpaceOnUse"><path id="path28" d="M 0,21 H 21 V 0 H 0 Z"/></clipPath></defs><g id="g10" transform="matrix(1.3333333,0,0,-1.3333333,0,28)"><g id="g12"><g id="g14" clip-path="url(#clipPath18)"><g id="g20" transform="translate(21,0.5)"><path style="fill:#333;fill-opacity:1;fill-rule:nonzero;stroke:none" id="path22" d="m 0,0 c 0,-0.275 -0.225,-0.5 -0.5,-0.5 h -20 c -0.275,0 -0.5,0.225 -0.5,0.5 v 20 c 0,0.275 0.225,0.5 0.5,0.5 h 20 C -0.225,20.5 0,20.275 0,20 Z"/></g></g></g><g id="g24"><g id="g26" clip-path="url(#clipPath30)"><g id="g32" transform="translate(7.5,17.7505)"><path style="fill:#b3b3b3;fill-opacity:1;fill-rule:nonzero;stroke:none" id="path34" d="m 0,0 c 0,0.266 0.154,0.33 0.34,0.141 l 7.02,-7.05 c 0.187,-0.188 0.187,-0.495 0,-0.683 L 0.34,-14.641 C 0.154,-14.832 0,-14.767 0,-14.501 Z"/></g><g id="g36" transform="translate(15,10.4995)"><path style="fill:#e6e6e6;fill-opacity:1;fill-rule:nonzero;stroke:none" id="path38" d="m 0,0 c 0,0.124 -0.047,0.248 -0.14,0.342 l -7.02,7.05 C -7.346,7.581 -7.5,7.517 -7.5,7.251 V 0 Z"/></g></g></g></g></svg>