<svg xmlns="http://www.w3.org/2000/svg" xmlns:svg="http://www.w3.org/2000/svg" id="svg2" width="28" height="28" version="1.1" viewBox="0 0 28 28" xml:space="preserve"><metadata id="metadata8"/><defs id="defs6"><clipPath id="clipPath18" clipPathUnits="userSpaceOnUse"><path id="path16" d="M 0,21 H 21 V 0 H 0 Z"/></clipPath><clipPath id="clipPath30" clipPathUnits="userSpaceOnUse"><path id="path28" d="M 0,21 H 21 V 0 H 0 Z"/></clipPath></defs><g id="g10" transform="matrix(1.3333333,0,0,-1.3333333,0,28)"><g id="g12"><g id="g14" clip-path="url(#clipPath18)"><g id="g20" transform="translate(21,0.5)"><path style="fill:#333;fill-opacity:1;fill-rule:nonzero;stroke:none" id="path22" d="m 0,0 c 0,-0.275 -0.225,-0.5 -0.5,-0.5 h -20 c -0.275,0 -0.5,0.225 -0.5,0.5 v 20 c 0,0.275 0.225,0.5 0.5,0.5 h 20 C -0.225,20.5 0,20.275 0,20 Z"/></g></g></g><g id="g24"><g id="g26" clip-path="url(#clipPath30)"><g id="g32" transform="translate(15,16.7837)"><path style="fill:#b3b3b3;fill-opacity:1;fill-rule:nonzero;stroke:none" id="path34" d="m 0,0 c 0,0.23 -0.134,0.286 -0.297,0.123 l -6.126,-6.111 c -0.163,-0.162 -0.163,-0.429 0,-0.592 l 6.126,-6.11 C -0.134,-12.853 0,-12.798 0,-12.568 Z"/></g><g id="g36" transform="translate(8.4556,10.5)"><path style="fill:#e6e6e6;fill-opacity:1;fill-rule:nonzero;stroke:none" id="path38" d="M 0,0 C 0,0.106 0.04,0.214 0.122,0.295 L 6.248,6.406 C 6.411,6.569 6.544,6.514 6.544,6.284 V 0 Z"/></g><g id="g40" transform="translate(6,10.5)"><path style="fill:#e6e6e6;fill-opacity:1;fill-rule:nonzero;stroke:none" id="path42" d="M 0,0 V 6.093 C 0,6.317 0.369,6.5 0.818,6.5 1.268,6.5 1.636,6.317 1.636,6.093 V 0 Z"/></g><g id="g44" transform="translate(7.6362,10.5)"><path style="fill:#b3b3b3;fill-opacity:1;fill-rule:nonzero;stroke:none" id="path46" d="m 0,0 v -6.094 c 0,-0.223 -0.369,-0.405 -0.818,-0.405 -0.45,0 -0.818,0.182 -0.818,0.405 V 0 Z"/></g></g></g></g></svg>