<svg xmlns="http://www.w3.org/2000/svg" xmlns:svg="http://www.w3.org/2000/svg" id="svg2" width="28" height="28" version="1.1" viewBox="0 0 28 28" xml:space="preserve"><metadata id="metadata8"/><defs id="defs6"><clipPath id="clipPath18" clipPathUnits="userSpaceOnUse"><path id="path16" d="M 0,21 H 21 V 0 H 0 Z"/></clipPath><clipPath id="clipPath30" clipPathUnits="userSpaceOnUse"><path id="path28" d="M 0,21 H 21 V 0 H 0 Z"/></clipPath></defs><g id="g10" transform="matrix(1.3333333,0,0,-1.3333333,0,28)"><g id="g12"><g id="g14" clip-path="url(#clipPath18)"><g id="g20" transform="translate(21,0.5)"><path style="fill:#333;fill-opacity:1;fill-rule:nonzero;stroke:none" id="path22" d="m 0,0 c 0,-0.275 -0.225,-0.5 -0.5,-0.5 h -20 c -0.275,0 -0.5,0.225 -0.5,0.5 v 20 c 0,0.275 0.225,0.5 0.5,0.5 h 20 C -0.225,20.5 0,20.275 0,20 Z"/></g></g></g><g id="g24"><g id="g26" clip-path="url(#clipPath30)"><g id="g32" transform="translate(16,5.458)"><path style="fill:#e6e6e6;fill-opacity:1;fill-rule:nonzero;stroke:none" id="path34" d="M 0,0 C 0,-0.252 -0.206,-0.458 -0.458,-0.458 H -10.542 C -10.794,-0.458 -11,-0.252 -11,0 v 10.083 c 0,0.252 0.206,0.459 0.458,0.459 H -0.458 C -0.206,10.542 0,10.335 0,10.083 Z"/></g><g id="g36" transform="translate(16,10.5)"><path style="fill:#b3b3b3;fill-opacity:1;fill-rule:nonzero;stroke:none" id="path38" d="M 0,0 V -5.133 C 0,-5.335 -0.165,-5.5 -0.367,-5.5 H -10.633 C -10.835,-5.5 -11,-5.335 -11,-5.133 V 0 Z"/></g></g></g></g></svg>